<?xml version="1.0" encoding="utf-8"?>
<!-- Generator: Adobe Illustrator 25.2.2, SVG Export Plug-In . SVG Version: 6.00 Build 0)  -->
<svg version="1.1" xmlns="http://www.w3.org/2000/svg" xmlns:xlink="http://www.w3.org/1999/xlink" x="0px" y="0px"
	 viewBox="0 0 40 40" style="enable-background:new 0 0 40 40;" xml:space="preserve">
<style type="text/css">
	.st0{display:none;}
	.st1{display:inline;}
	.st2{fill:#103149;}
	.st3{fill:#EEEEED;}
	.st4{fill:#E0E4E5;}
	.st5{fill:#F5BF49;}
	.st6{fill:#D62828;}
	.st7{fill:#F0BD56;}
	.st8{fill:#9197AB;}
	.st9{fill:#88C3CB;}
	.st10{fill:#EEEFED;}
	.st11{fill:#F8D362;}
	.st12{fill:#F77159;}
	.st13{fill:#E6E45B;}
	.st14{fill:#37416E;}
	.st15{fill:#333F6D;}
	.st16{fill:#DB2A2A;}
	.st17{fill:#B1C4D4;}
	.st18{fill:#D6E1E5;}
	.st19{fill:#1E607F;}
	.st20{fill:#9AB5CD;}
	.st21{fill:#F06A57;}
	.st22{fill:#DB3541;}
	.st23{fill:#F5BB76;}
	.st24{fill:#FFFFFF;}
	.st25{fill:#EEF0F1;}
</style>
<g id="Starship" class="st0">
	<g class="st1">
		<path class="st2" d="M26.2,35.4c-0.3,0-0.5,0.2-0.7,0.3c-1.6,1-3.4,1.1-5.2,1.1c-0.4,0-0.6-0.2-0.4-0.7c0.5-1.4,0.7-2.9,0.6-4.4
			c0-0.2,0-0.4-0.2-0.5c-0.5,0.5-1,0.9-1.4,1.4c-0.3,0.3-0.6,0.4-0.9,0c-0.3-0.4-0.5-0.3-0.8,0c-0.3,0.3-0.7,0.6-1,1
			c-0.3,0.4-0.6,0.4-1,0c-0.3-0.4-0.5-0.3-0.7,0.1c-1,1.9-2.4,3.1-4.6,3.5c-2.2,0.3-4.3,0.6-6.3,1.5c-0.6,0.3-1.2,0-1.8-0.2
			c-0.2-0.2-0.3-0.3-0.5-0.5c-0.4-0.8-0.3-1.6,0.1-2.5c0.6-1.5,0.9-3,1-4.6c0.2-2.7,1.4-4.6,3.9-5.7c0.1,0,0.2-0.1,0.2-0.1l0,0
			c0,0,0-0.1,0-0.1c-1-0.9-0.7-0.9,0-1.7C6.8,23.2,6.9,23.1,7,23c0.2-0.2,0.5-0.4,0.6-0.6c0.1-0.3-0.3-0.4-0.4-0.6
			c-0.2-0.3-0.1-0.5,0.1-0.7c0.5-0.5,0.9-0.9,1.5-1.5c-1-0.2-2-0.1-2.9,0c-0.7,0.1-1.4,0.3-2.1,0.5c-0.4,0.1-0.6,0-0.7-0.4
			c-0.1-2.7,0.5-5.2,2.7-7.1c1.4-1.3,3.1-1.9,5-2.2c2.1-0.4,4.1-0.2,6.1,0.5c0.4,0.1,0.6,0,0.8-0.2c1.6-1.6,3.2-3.4,5-4.9
			c4.4-3.8,9.5-5.3,15.3-4.4c0.4,0.1,0.6,0.2,0.7,0.7c0.8,5.1-0.3,9.6-3.2,13.8c-1.1,1.6-2.6,2.9-3.9,4.2c-0.7,0.7-1.4,1.4-2.1,2.1
			c-0.3,0.3-0.3,0.5-0.2,0.9c1,3,0.9,5.9-0.3,8.8c-0.3,0.7-0.7,1.2-1,1.8C27.2,34.3,26.7,34.8,26.2,35.4z M35.4,2
			c-1.6-0.1-3.2,0.1-4.8,0.5c-0.3,0.1-0.3,0.2-0.3,0.4c-0.1,2.8,2.1,5.7,4.8,6.4c0.7,0.3,1.4,0.3,2.1,0.4c0.2,0,0.3-0.1,0.4-0.3
			c0.6-2.3,0.7-4.6,0.3-6.9c0-0.2-0.1-0.3-0.3-0.3C36.8,2.1,36.1,2,35.4,2z M21.1,35.1c-0.1,0.2-0.1,0.4-0.2,0.7
			c-0.1,0.2,0,0.4,0.2,0.3c2.7,0,4.9-1,6.4-3.3c1-1.6,1.3-3.3,1.4-5.1c0.1-1.3-0.1-2.6-0.5-3.9c-0.1-0.4-0.2-0.4-0.5-0.1
			c-0.2,0.3-0.5,0.5-0.7,0.8l0,0c-2,1.9-3.9,4-5.9,5.9c-0.1,0.1-0.2,0.3-0.1,0.5C21.4,32.2,21.3,33.6,21.1,35.1z M15.6,12.7
			c0.3-0.2,0.5-0.5,0.7-0.7c0.3-0.3,0.3-0.4-0.1-0.5c-2.5-0.7-4.9-0.6-7.3,0.2c-3,1-4.8,3.3-5,6.5c-0.1,1.1-0.1,1.1,1,0.7
			c1.3-0.2,2.7-0.4,4-0.1c0.5,0.1,0.8-0.1,1.1-0.4c1.4-1.5,2.9-2.9,4.4-4.4C14.8,13.6,15.2,13.1,15.6,12.7z M2.2,36.2
			c-0.3,0.5-0.3,1.1,0.1,1.5c0.4,0.4,1,0.4,1.5,0.2c1.1-0.4,2.2-0.8,3.3-1c1-0.2,2-0.3,2.9-0.5c1.7-0.3,2.9-1.3,3.7-2.8
			c0.7-1.2,0.6-0.9-0.3-1.8c-0.1-0.1-0.2-0.2-0.2-0.2c-1.6-1.6-3.3-3.3-4.9-4.9c-0.2-0.3-0.5-0.5-0.7-0.8c-0.2-0.2-0.4-0.2-0.6-0.1
			c-2.1,0.9-3.4,2.4-3.6,4.8C3.2,32.5,2.8,34.4,2.2,36.2z M17.3,30.6c0.3,0.3,0.5,0.6,0.8,0.9c0.4,0.5,0.4,0.5,0.9,0
			c3.9-3.9,7.8-7.8,11.6-11.6c1.2-1.2,2.4-2.3,3.5-3.6c1.3-1.6,2.2-3.4,2.9-5.4c0.1-0.3,0.1-0.4-0.3-0.4c-0.6,0-1.3-0.2-1.9-0.3
			c-3.3-1.2-5.1-3.5-5.4-7.1c0-0.4-0.2-0.2-0.4-0.2c-2.3,0.8-4.5,2-6.3,3.7c-3.3,3.3-6.6,6.6-9.9,9.9c-1.5,1.5-3.1,3.1-4.6,4.6
			c-0.2,0.2-0.3,0.4,0,0.7c1.4,1.3,2.7,2.7,4.1,4C14,27.4,15.6,29,17.3,30.6z M12.7,27.3c-1.2-1.2-2.4-2.4-3.6-3.6
			c-0.9-0.9-0.8-0.8-1.7,0C7,24,7,24.2,7.4,24.6c2.5,2.5,5,5,7.5,7.4c1,1,0.9,1,1.9,0c0.3-0.3,0.2-0.4,0-0.7
			C15.4,30,14.1,28.7,12.7,27.3z"/>
		<path class="st3" d="M17.3,30.6c-1.6-1.6-3.3-3.2-4.9-4.9c-1.4-1.3-2.7-2.7-4.1-4c-0.3-0.3-0.2-0.4,0-0.7c1.6-1.5,3.1-3.1,4.6-4.6
			c3.3-3.3,6.6-6.6,9.9-9.9c1.8-1.7,3.9-2.9,6.3-3.7c0.2-0.1,0.4-0.2,0.4,0.2c0.2,3.5,2.1,5.9,5.4,7.1c-0.2,0.4-0.3,0.7-0.5,1.1
			c-0.8,2.2-2,4.2-3.7,5.9C26.3,21.7,21.7,26.1,17.3,30.6z M30.5,14.7c1.5-1.4,1.5-3.8,0-5.2c-1.4-1.4-3.8-1.4-5.2,0
			c-1.4,1.4-1.4,3.8,0,5.2C26.7,16.1,29,16.1,30.5,14.7z M17.4,22c-0.5,0.5-1,1-1.5,1.5c-0.2,0.2-0.4,0.4-0.1,0.6
			c0.2,0.2,0.4,0.1,0.6-0.1c1-1,2-2,3.1-3.1c0.2-0.2,0.3-0.4,0.1-0.6c-0.2-0.2-0.4-0.1-0.6,0.1C18.4,21,17.9,21.5,17.4,22z
			 M14.4,20.9c0.2-0.2,0.5-0.4,0.7-0.7c0.2-0.2,0.2-0.3,0-0.5c-0.2-0.2-0.4-0.2-0.6,0c-0.5,0.5-0.9,0.9-1.4,1.4
			c-0.2,0.2-0.2,0.4,0,0.6c0.2,0.1,0.4,0.1,0.5,0C14,21.3,14.2,21.1,14.4,20.9z M19.1,25.5c-0.2,0.2-0.4,0.5-0.7,0.7
			c-0.2,0.2-0.2,0.4,0,0.6c0.1,0.2,0.4,0.2,0.5,0c0.5-0.5,1-0.9,1.4-1.4c0.2-0.2,0.1-0.4,0-0.5c-0.2-0.2-0.4-0.1-0.6,0
			C19.5,25.1,19.3,25.3,19.1,25.5z"/>
		<path class="st4" d="M17.3,30.6c4.5-4.5,9-9,13.5-13.5c1.6-1.7,2.8-3.7,3.7-5.9c0.1-0.4,0.3-0.7,0.5-1.1c0.6,0.1,1.2,0.3,1.9,0.3
			c0.3,0,0.4,0.1,0.3,0.4c-0.7,1.9-1.7,3.7-2.9,5.4c-1,1.3-2.3,2.5-3.5,3.6c-3.9,3.9-7.8,7.8-11.6,11.6c-0.5,0.5-0.5,0.5-0.9,0
			C17.8,31.2,17.5,30.9,17.3,30.6z"/>
		<path class="st5" d="M13.3,31.6c0.1,0.1,0.2,0.2,0.2,0.2c-0.6,1-1.4,1.9-2.6,2.4c-0.8,0.4-1.7,0.5-2.6,0.6
			c-1.7,0.2-3.3,0.5-4.9,1.2c-0.4,0.2-0.8,0.3-1.2,0.1c0.7-1.8,1.1-3.6,1.2-5.5c0.2-2.4,1.5-3.9,3.6-4.8c0.2-0.1,0.4-0.1,0.6,0.1
			c0.2,0.3,0.5,0.5,0.7,0.8c-1.1,0.8-1.5,1.9-1.6,3.1c-0.1,1-0.3,2-0.7,2.9c-0.2,0.4-0.2,0.8,0.2,1.1c0.3,0.3,0.7,0.3,1.1,0.1
			c0.9-0.3,1.8-0.6,2.8-0.7C11.4,33.2,12.5,32.7,13.3,31.6z"/>
		<path class="st6" d="M15.6,12.7c-0.4,0.4-0.8,0.8-1.2,1.3c-1.5,1.5-2.9,2.9-4.4,4.4c-0.3,0.3-0.6,0.5-1.1,0.4
			c-1.4-0.2-2.7-0.1-4,0.1c0.5-2.7,2.1-4.5,4.6-5.5c1.3-0.5,2.6-0.8,4-0.9C14.2,12.5,14.9,12.5,15.6,12.7z"/>
		<path class="st6" d="M21.1,35.1c0.3-1.4,0.3-2.8,0.1-4.3c0-0.2,0-0.3,0.1-0.5c2-1.9,3.9-4,5.9-5.9l0,0c0.1,0.1,0.1,0.2,0.1,0.3
			c0.1,1,0.1,2.1-0.1,3.1c-0.4,2.4-1.2,4.6-3.3,6C23.1,34.4,22.2,35,21.1,35.1z"/>
		<path class="st6" d="M13.3,31.6c-0.8,1.1-1.9,1.5-3.2,1.7c-1,0.1-1.9,0.3-2.8,0.7c-0.4,0.2-0.8,0.2-1.1-0.1
			c-0.3-0.3-0.3-0.7-0.2-1.1c0.4-0.9,0.6-1.9,0.7-2.9c0.1-1.3,0.6-2.4,1.6-3.1C10,28.3,11.6,30,13.3,31.6z"/>
		<path class="st6" d="M35,9.3c-2.7-0.7-4.8-3.6-4.8-6.4c0-0.2,0-0.4,0.3-0.4c1.6-0.4,3.2-0.6,4.8-0.5C35.8,4.5,35.7,6.9,35,9.3z"/>
		<path class="st6" d="M21.1,35.1c1.1-0.1,2-0.6,2.9-1.2c2.1-1.5,2.9-3.6,3.3-6c0.2-1,0.2-2.1,0.1-3.1c0-0.1,0-0.2-0.1-0.3
			c0.2-0.3,0.5-0.5,0.7-0.8c0.2-0.3,0.4-0.3,0.5,0.1c0.4,1.3,0.5,2.6,0.5,3.9c-0.1,1.8-0.4,3.5-1.4,5.1c-1.5,2.3-3.7,3.3-6.4,3.3
			c-0.3,0-0.3-0.1-0.2-0.3C20.9,35.5,21,35.3,21.1,35.1z"/>
		<path class="st6" d="M15.6,12.7c-0.7-0.3-1.4-0.2-2.1-0.2c-1.4,0.1-2.7,0.3-4,0.9c-2.5,1-4.1,2.8-4.6,5.5c-1.1,0.3-1.1,0.3-1-0.7
			c0.2-3.1,2-5.5,5-6.5c2.4-0.8,4.9-0.9,7.3-0.2c0.5,0.1,0.5,0.3,0.1,0.5C16,12.3,15.9,12.5,15.6,12.7z"/>
		<path class="st7" d="M2.2,36.2c0.4,0.2,0.8,0.1,1.2-0.1c1.6-0.7,3.2-0.9,4.9-1.2c0.9-0.1,1.8-0.3,2.6-0.6c1.1-0.5,1.9-1.4,2.6-2.4
			c0.9,0.9,1,0.6,0.3,1.8c-0.8,1.5-2,2.5-3.7,2.8c-1,0.2-2,0.3-2.9,0.5c-1.1,0.2-2.2,0.5-3.3,1c-0.6,0.2-1.1,0.3-1.5-0.2
			C1.9,37.3,1.9,36.7,2.2,36.2z"/>
		<path class="st8" d="M12.7,27.3c1.4,1.4,2.7,2.7,4.1,4c0.3,0.3,0.3,0.4,0,0.7c-1,1-0.9,1-1.9,0c-2.5-2.5-5-5-7.5-7.4
			C7,24.2,7,24,7.4,23.7c0.9-0.8,0.9-0.8,1.7,0C10.3,24.9,11.5,26.1,12.7,27.3z"/>
		<path class="st6" d="M35,9.3c0.7-2.4,0.8-4.9,0.4-7.3c0.7,0,1.4,0.1,2.1,0.2c0.2,0,0.3,0.1,0.3,0.3c0.4,2.3,0.2,4.7-0.3,6.9
			c-0.1,0.2-0.2,0.3-0.4,0.3C36.3,9.7,35.6,9.6,35,9.3z"/>
		<path class="st2" d="M30.5,14.7c-1.4,1.4-3.8,1.4-5.2,0c-1.4-1.4-1.4-3.8,0-5.2c1.4-1.4,3.8-1.4,5.2,0
			C31.9,10.9,31.9,13.3,30.5,14.7z M25.8,14.1c1.1,1.2,3,1.2,4.1,0.1c1.1-1.1,1.1-3,0-4.2c-1.1-1.1-3.1-1.1-4.2,0
			C24.7,11.1,24.7,13,25.8,14.1z"/>
		<path class="st2" d="M17.4,22c0.5-0.5,1-1,1.5-1.5c0.2-0.2,0.4-0.3,0.6-0.1c0.2,0.2,0.1,0.4-0.1,0.6c-1,1-2,2-3.1,3.1
			c-0.2,0.2-0.4,0.3-0.6,0.1c-0.2-0.2-0.1-0.4,0.1-0.6C16.4,23,16.9,22.5,17.4,22z"/>
		<path class="st2" d="M14.4,20.9c-0.2,0.2-0.5,0.5-0.7,0.7c-0.2,0.2-0.4,0.2-0.5,0c-0.2-0.2-0.2-0.4,0-0.6c0.5-0.5,0.9-0.9,1.4-1.4
			c0.2-0.2,0.4-0.2,0.6,0c0.2,0.2,0.1,0.4,0,0.5C14.9,20.4,14.7,20.6,14.4,20.9z"/>
		<path class="st2" d="M19.1,25.5c0.2-0.2,0.4-0.4,0.7-0.7c0.2-0.2,0.4-0.2,0.6,0c0.2,0.2,0.2,0.4,0,0.5c-0.5,0.5-0.9,1-1.4,1.4
			c-0.2,0.2-0.4,0.2-0.5,0c-0.2-0.2-0.2-0.4,0-0.6C18.6,26,18.8,25.7,19.1,25.5z"/>
		<path class="st9" d="M25.8,14.1c-1.1-1.1-1.1-3,0-4.1c1.1-1.1,3.1-1.1,4.2,0c1.1,1.2,1.1,3.1,0,4.2C28.8,15.3,26.9,15.3,25.8,14.1
			z"/>
	</g>
</g>
<g id="Falcon_9" class="st0">
	<g class="st1">
		<path class="st2" d="M6.2,12.1c0.3,0,0.6-0.3,0.9-0.5c3.2-1.6,6.4-1.8,9.8-0.7c0.4,0.1,0.6,0.1,0.9-0.2c1.6-1.6,3.1-3.3,4.8-4.7
			c4.5-4,9.8-5.5,15.8-4.5l0.2,0c0.1,0.1,0.2,0.2,0.2,0.2c0.1,0.8,0.2,1.6,0.2,2.4c0.2,4.6-1.1,8.8-3.9,12.5
			c-1.6,2.1-3.6,3.8-5.5,5.7c-0.3,0.3-0.4,0.6-0.3,1.1c1,3,0.9,6-0.4,8.9c-1.3,3-3.7,4.5-7,4.8c-0.4,0-0.8,0-1.2,0
			c-0.7,0-0.8-0.1-0.6-0.8c0.5-1.4,0.7-2.8,0.6-4.3c0-0.1,0-0.3,0-0.4c0,0,0-0.1-0.1-0.2c-0.5,0.5-0.9,0.9-1.3,1.3
			c-0.5,0.5-0.6,0.5-1.1,0c-0.3-0.3-0.4-0.3-0.7,0c-0.3,0.4-0.7,0.7-1,1c-0.5,0.5-0.6,0.5-1.1,0c-0.1-0.1-0.2-0.2-0.3-0.3
			c-0.4,0.6-0.7,1.3-1.1,1.8c-0.9,1.1-2,1.8-3.4,2.1c-0.8,0.2-1.7,0.3-2.5,0.4c-1.3,0.2-2.6,0.6-3.8,1.1c-0.8,0.3-1.6,0.3-2.3-0.4
			C1,37.7,1,36.9,1.3,36.1c0.6-1.6,1-3.3,1.2-5C2.6,30,2.7,28.9,3.3,28C3.9,26.8,5,26,6.2,25.4c0.1-0.1,0.3-0.1,0.4-0.2
			c0-0.2-0.1-0.2-0.1-0.3c-0.7-0.7-0.7-0.7,0-1.4c0.3-0.3,0.6-0.6,0.9-0.9c0.2-0.2,0.3-0.3,0-0.6c-0.6-0.6-0.5-0.6,0-1.1
			c0.4-0.4,0.8-0.8,1.4-1.4c-0.3,0-0.6-0.1-0.8-0.1c-1.4-0.1-2.8,0.1-4.2,0.6C3.2,20.2,3,20.1,3,19.5c0-2.1,0.3-4,1.6-5.7l0-0.1
			C5.1,13.1,5.6,12.6,6.2,12.1z M35.5,1.9c-1.7-0.1-3.3,0.1-4.9,0.5c-0.2,0.1-0.3,0.2-0.3,0.4c-0.1,2.8,2.1,5.8,4.8,6.5
			c0.7,0.3,1.4,0.3,2.1,0.4c0.2,0,0.3-0.1,0.4-0.3c0.6-2.3,0.7-4.6,0.3-7c0-0.2-0.1-0.3-0.3-0.3C36.8,2,36.2,1.9,35.5,1.9z
			 M4.9,18.9c1.5-0.3,3-0.3,4.5-0.1c0.2,0,0.3-0.2,0.4-0.4c1.3-1.3,2.6-2.6,4-4c0.5-0.5,1-1,1.5-1.5c0.1-0.1,0.2-0.1,0.2-0.2
			c0.2-0.2,0.5-0.4,0.7-0.6c0.4-0.4,0.4-0.4-0.2-0.6c-2.6-0.7-5.2-0.6-7.7,0.4C5.6,13,4.1,15.1,3.8,18C3.7,19.2,3.8,19.2,4.9,18.9z
			 M21.1,35.2c-0.1,0.3-0.2,0.6-0.3,1c0.5,0,0.9,0,1.4-0.1c2.1-0.2,3.8-1.1,5-2.8c1.3-1.8,1.7-3.8,1.8-5.9c0-1.4-0.1-2.7-0.6-4
			l-0.2,0.1c-2.3,2.3-4.5,4.5-6.8,6.8c-0.1,0.1-0.2,0.3-0.2,0.5C21.4,32.2,21.3,33.7,21.1,35.2z M2.1,36.3c-0.3,0.5-0.3,1.1,0.1,1.5
			c0.4,0.4,0.9,0.4,1.5,0.2c0.6-0.2,1.2-0.4,1.9-0.6c1.4-0.4,2.8-0.6,4.2-0.8c1.8-0.3,3.1-1.2,3.9-2.8c0.7-1.3,0.7-0.9-0.3-1.9
			c-0.1-0.1-0.2-0.2-0.2-0.2c-1.7-1.7-3.3-3.3-5-5C8,26.5,7.7,26.2,7.5,26c-0.2-0.2-0.3-0.2-0.6-0.1c-0.7,0.3-1.3,0.7-1.9,1.2
			c-1.2,1-1.6,2.3-1.8,3.7C3.1,32.7,2.7,34.5,2.1,36.3z M17.2,30.7c0.3,0.3,0.5,0.6,0.8,0.9c0.4,0.5,0.4,0.5,0.9,0
			c3.9-3.9,7.8-7.8,11.7-11.7c1.2-1.2,2.5-2.4,3.5-3.7c1.3-1.6,2.3-3.4,3-5.4c0.1-0.2,0.1-0.4-0.2-0.4c-0.7,0-1.3-0.2-1.9-0.3
			c-3.3-1.2-5.1-3.5-5.4-7c0-0.4-0.2-0.3-0.4-0.3c-2.4,0.9-4.6,2.1-6.5,3.9c-4.2,4.1-8.3,8.3-12.5,12.5c-0.6,0.6-1.3,1.3-1.9,1.9
			c-0.3,0.2-0.2,0.4,0,0.6c2.5,2.5,5,5,7.5,7.5C16.2,29.7,16.7,30.2,17.2,30.7z M11.3,28.6L11.3,28.6c1.2,1.2,2.4,2.4,3.6,3.5
			c0.9,0.9,0.9,0.9,1.8,0c0.3-0.3,0.3-0.5,0-0.8c-2.5-2.5-5.1-5.1-7.6-7.6c-0.9-0.9-0.9-0.9-1.8,0c-0.3,0.3-0.3,0.5,0,0.8
			C8.6,25.9,10,27.3,11.3,28.6z"/>
		<path class="st10" d="M17.2,30.7c-0.5-0.5-1-1-1.5-1.5c-2.5-2.5-5-5-7.5-7.5c-0.2-0.2-0.3-0.4,0-0.6c0.7-0.6,1.3-1.3,1.9-1.9
			c4.2-4.2,8.3-8.3,12.5-12.5c1.8-1.8,4-3.1,6.5-3.9c0.3-0.1,0.4-0.1,0.4,0.3c0.3,3.5,2.1,5.8,5.4,7c-0.2,0.5-0.4,0.9-0.6,1.4
			c-0.8,2.1-2,4-3.5,5.5C26.4,21.6,21.8,26.2,17.2,30.7z M30.6,14.7c1.4-1.5,1.4-3.8,0-5.3c-1.4-1.4-3.8-1.4-5.2,0
			c-1.5,1.4-1.5,3.9,0,5.3C26.7,16.1,29.1,16.1,30.6,14.7z M17.4,22c-0.5,0.5-1,1-1.5,1.5c-0.2,0.2-0.4,0.4-0.1,0.7
			c0.2,0.2,0.5,0.1,0.6-0.1c1-1,2-2,3-3c0.2-0.2,0.3-0.4,0.1-0.6c-0.3-0.3-0.5-0.1-0.7,0.1C18.4,21.1,17.9,21.5,17.4,22z M14.4,20.9
			c0.2-0.2,0.5-0.5,0.7-0.7c0.2-0.2,0.2-0.3,0-0.5c-0.2-0.2-0.4-0.2-0.5,0c-0.5,0.5-1,0.9-1.4,1.4c-0.2,0.2-0.2,0.4,0,0.6
			c0.2,0.1,0.4,0.1,0.5,0C13.9,21.4,14.2,21.1,14.4,20.9z M19.6,26.1c0.2-0.2,0.5-0.4,0.7-0.7c0.2-0.2,0.2-0.4,0-0.6
			c-0.2-0.2-0.4-0.1-0.5,0c-0.5,0.5-0.9,0.9-1.4,1.4c-0.2,0.2-0.2,0.4,0,0.6c0.2,0.1,0.4,0.1,0.5,0C19.1,26.6,19.4,26.3,19.6,26.1z"
			/>
		<path class="st4" d="M17.2,30.7c4.5-4.5,9.1-9.1,13.6-13.6c1.6-1.6,2.7-3.5,3.5-5.5c0.2-0.5,0.4-0.9,0.6-1.4
			c0.6,0.1,1.3,0.3,1.9,0.3c0.4,0,0.3,0.1,0.2,0.4c-0.7,2-1.7,3.8-3,5.4c-1.1,1.3-2.3,2.5-3.5,3.7c-3.9,3.9-7.8,7.8-11.7,11.7
			c-0.5,0.5-0.5,0.5-0.9,0C17.8,31.3,17.5,31,17.2,30.7z"/>
		<path class="st11" d="M13.2,31.7c0.1,0.1,0.2,0.2,0.2,0.2c-0.6,1.1-1.5,1.9-2.6,2.4C10,34.7,9.1,34.9,8.2,35
			c-1.7,0.2-3.3,0.5-4.9,1.2c-0.4,0.2-0.8,0.3-1.2,0.1c0.7-1.8,1-3.6,1.2-5.5C3.4,29.3,3.9,28,5.1,27c0.6-0.5,1.2-0.8,1.9-1.2
			c0.2-0.1,0.4-0.1,0.6,0.1c0.2,0.3,0.5,0.5,0.7,0.8c-1,0.8-1.5,1.8-1.6,3c-0.1,1.1-0.3,2.1-0.7,3.1c-0.2,0.4-0.1,0.7,0.2,1
			c0.3,0.3,0.7,0.4,1.1,0.2c0.9-0.4,1.8-0.6,2.7-0.7C11.3,33.3,12.4,32.8,13.2,31.7z"/>
		<path class="st5" d="M21.1,35.2c0.2-1.5,0.4-2.9,0.1-4.4c0-0.2,0-0.3,0.2-0.5c2.3-2.3,4.5-4.5,6.8-6.8l0.2-0.1
			c-0.2,0.2-0.4,0.4-0.6,0.6c-0.3,0.2-0.4,0.5-0.3,0.9c0.1,0.8,0.1,1.6,0,2.3c-0.3,2.5-1,4.7-3,6.4C23.5,34.4,22.4,35,21.1,35.2z"/>
		<path class="st5" d="M15.5,12.7c0,0.1-0.1,0.2-0.2,0.2c-0.1,0.1-0.2,0.2-0.4,0.3c-1.8,1.8-3.7,3.7-5.5,5.5c-1.5-0.2-3-0.2-4.5,0.1
			c-0.1-0.1-0.1-0.2-0.1-0.3c0.6-2.2,1.9-3.9,4-4.9c1.5-0.7,3-1,4.6-1.1C14.2,12.5,14.9,12.4,15.5,12.7z"/>
		<path class="st12" d="M13.2,31.7c-0.8,1.1-2,1.6-3.3,1.7c-0.9,0.1-1.8,0.3-2.7,0.7c-0.4,0.2-0.8,0.1-1.1-0.2
			c-0.3-0.3-0.3-0.7-0.2-1c0.4-1,0.7-2.1,0.7-3.1c0.1-1.2,0.6-2.2,1.6-3C9.9,28.4,11.6,30.1,13.2,31.7z"/>
		<path class="st5" d="M35.1,9.3c-2.7-0.7-4.9-3.7-4.8-6.5c0-0.2,0.1-0.3,0.3-0.4c1.6-0.4,3.2-0.6,4.9-0.5c0.2,0.6,0.2,1.2,0.2,1.7
			C35.8,5.6,35.6,7.5,35.1,9.3z"/>
		<path class="st5" d="M15.5,12.7c-0.7-0.3-1.3-0.2-2-0.2c-1.6,0.1-3.2,0.4-4.6,1.1c-2.1,1-3.4,2.7-4,4.9c0,0.1,0,0.2,0.1,0.3
			c-1.2,0.4-1.2,0.4-1.1-0.8c0.3-3,1.7-5.1,4.5-6.2c2.5-1,5.1-1.1,7.7-0.4c0.6,0.2,0.6,0.2,0.2,0.6C16,12.3,15.8,12.5,15.5,12.7z"/>
		<path class="st5" d="M21.1,35.2c1.3-0.1,2.4-0.8,3.4-1.6c2-1.7,2.7-3.9,3-6.4c0.1-0.8,0.1-1.6,0-2.3c-0.1-0.4,0-0.7,0.3-0.9
			c0.2-0.2,0.4-0.4,0.6-0.6c0.5,1.3,0.7,2.6,0.6,4c-0.1,2.1-0.5,4.2-1.8,5.9c-1.3,1.7-3,2.6-5,2.8c-0.4,0-0.9,0-1.4,0.1
			C20.9,35.8,21,35.5,21.1,35.2z"/>
		<path class="st7" d="M2.1,36.3c0.4,0.2,0.8,0.1,1.2-0.1c1.6-0.7,3.2-0.9,4.9-1.2c0.9-0.1,1.8-0.3,2.6-0.6c1.1-0.5,2-1.3,2.6-2.4
			c0.9,0.9,1,0.6,0.3,1.9c-0.9,1.5-2.2,2.5-3.9,2.8c-1.4,0.2-2.9,0.4-4.2,0.8c-0.6,0.2-1.3,0.4-1.9,0.6c-0.5,0.2-1.1,0.3-1.5-0.2
			C1.8,37.4,1.8,36.8,2.1,36.3z"/>
		<path class="st8" d="M11.3,28.6c-1.4-1.4-2.7-2.7-4.1-4.1c-0.3-0.3-0.3-0.5,0-0.8c0.9-0.9,0.9-0.9,1.8,0c2.5,2.5,5.1,5.1,7.6,7.6
			c0.3,0.3,0.3,0.5,0,0.8c-0.9,0.9-0.9,0.9-1.8,0C13.7,31,12.5,29.8,11.3,28.6L11.3,28.6z"/>
		<path class="st5" d="M35.1,9.3c0.5-1.8,0.7-3.7,0.6-5.6c0-0.6,0-1.2-0.2-1.7c0.7,0,1.4,0.1,2.1,0.2c0.2,0,0.3,0.1,0.3,0.3
			c0.3,2.3,0.2,4.7-0.3,7c-0.1,0.2-0.2,0.3-0.4,0.3C36.5,9.6,35.7,9.6,35.1,9.3z"/>
		<path class="st13" d="M9.4,18.8c1.8-1.8,3.7-3.7,5.5-5.5c0.1-0.1,0.2-0.2,0.4-0.3c-0.5,0.5-1,1-1.5,1.5c-1.3,1.3-2.6,2.6-4,4
			C9.7,18.6,9.6,18.8,9.4,18.8z"/>
		<path class="st2" d="M30.6,14.7c-1.4,1.4-3.8,1.5-5.3,0c-1.4-1.4-1.4-3.8,0-5.3c1.4-1.4,3.8-1.4,5.2,0C32,10.9,32,13.2,30.6,14.7z
			 M25.8,14.1c1.2,1.2,3.1,1.2,4.2,0c1.1-1.1,1.1-3,0-4.2c-1.1-1.2-3-1.2-4.2,0C24.7,11.1,24.7,12.9,25.8,14.1z"/>
		<path class="st14" d="M17.4,22c0.5-0.5,1-1,1.5-1.5c0.2-0.2,0.4-0.4,0.7-0.1c0.2,0.2,0.1,0.5-0.1,0.6c-1,1-2,2-3,3
			c-0.2,0.2-0.4,0.3-0.6,0.1c-0.3-0.3-0.1-0.5,0.1-0.7C16.4,23,16.9,22.5,17.4,22z"/>
		<path class="st15" d="M14.4,20.9c-0.2,0.2-0.5,0.5-0.7,0.7c-0.2,0.2-0.4,0.2-0.5,0c-0.2-0.2-0.2-0.4,0-0.6c0.5-0.5,0.9-1,1.4-1.4
			c0.2-0.1,0.4-0.1,0.5,0c0.2,0.2,0.1,0.3,0,0.5C14.9,20.4,14.6,20.7,14.4,20.9z"/>
		<path class="st15" d="M19.6,26.1c-0.2,0.2-0.5,0.5-0.7,0.7c-0.2,0.2-0.4,0.2-0.5,0c-0.2-0.2-0.2-0.4,0-0.6
			c0.5-0.5,0.9-0.9,1.4-1.4c0.2-0.2,0.3-0.2,0.5,0c0.2,0.2,0.2,0.4,0,0.6C20.1,25.6,19.8,25.8,19.6,26.1z"/>
		<path class="st9" d="M25.8,14.1c-1.2-1.2-1.1-3,0-4.1c1.2-1.2,3-1.1,4.2,0c1.1,1.1,1.1,3,0,4.2C28.9,15.3,27,15.3,25.8,14.1z"/>
	</g>
</g>
<g id="Falcon_Heavy" class="st0">
	<g class="st1">
		<path class="st5" d="M6.2,12.1c0.3,0,0.6-0.3,0.9-0.5c3.2-1.6,6.4-1.8,9.8-0.7c0.4,0.1,0.6,0.1,0.9-0.2c1.6-1.6,3.1-3.3,4.8-4.7
			c4.5-4,9.8-5.5,15.8-4.5l0.2,0c0.1,0.1,0.2,0.2,0.2,0.2c0.1,0.8,0.2,1.6,0.2,2.4c0.2,4.6-1.1,8.8-3.9,12.5
			c-1.6,2.1-3.6,3.8-5.5,5.7c-0.3,0.3-0.4,0.6-0.3,1.1c1,3,0.9,6-0.4,8.9c-1.3,3-3.7,4.5-7,4.8c-0.4,0-0.8,0-1.2,0
			c-0.7,0-0.8-0.1-0.6-0.8c0.5-1.4,0.7-2.8,0.6-4.3c0-0.1,0-0.3,0-0.4c0,0,0-0.1-0.1-0.2c-0.5,0.5-0.9,0.9-1.3,1.3
			c-0.5,0.5-0.6,0.5-1.1,0c-0.3-0.3-0.4-0.3-0.7,0c-0.3,0.4-0.7,0.7-1,1c-0.5,0.5-0.6,0.5-1.1,0c-0.1-0.1-0.2-0.2-0.3-0.3
			c-0.4,0.6-0.7,1.3-1.1,1.8c-0.9,1.1-2,1.8-3.4,2.1c-0.8,0.2-1.7,0.3-2.5,0.4c-1.3,0.2-2.6,0.6-3.8,1.1c-0.8,0.3-1.6,0.3-2.3-0.4
			C1,37.7,1,36.9,1.3,36.1c0.6-1.6,1-3.3,1.2-5C2.6,30,2.7,28.9,3.3,28C3.9,26.8,5,26,6.2,25.4c0.1-0.1,0.3-0.1,0.4-0.2
			c0-0.2-0.1-0.2-0.1-0.3c-0.7-0.7-0.7-0.7,0-1.4c0.3-0.3,0.6-0.6,0.9-0.9c0.2-0.2,0.3-0.3,0-0.6c-0.6-0.6-0.5-0.6,0-1.1
			c0.4-0.4,0.8-0.8,1.4-1.4c-0.3,0-0.6-0.1-0.8-0.1c-1.4-0.1-2.8,0.1-4.2,0.6C3.2,20.2,3,20.1,3,19.5c0-2.1,0.3-4,1.6-5.7l0-0.1
			C5.1,13.1,5.6,12.6,6.2,12.1z M35.5,1.9c-1.7-0.1-3.3,0.1-4.9,0.5c-0.2,0.1-0.3,0.2-0.3,0.4c-0.1,2.8,2.1,5.8,4.8,6.5
			c0.7,0.3,1.4,0.3,2.1,0.4c0.2,0,0.3-0.1,0.4-0.3c0.6-2.3,0.7-4.6,0.3-7c0-0.2-0.1-0.3-0.3-0.3C36.8,2,36.2,1.9,35.5,1.9z
			 M4.9,18.9c1.5-0.3,3-0.3,4.5-0.1c0.2,0,0.3-0.2,0.4-0.4c1.3-1.3,2.6-2.6,4-4c0.5-0.5,1-1,1.5-1.5c0.1-0.1,0.2-0.1,0.2-0.2
			c0.2-0.2,0.5-0.4,0.7-0.6c0.4-0.4,0.4-0.4-0.2-0.6c-2.6-0.7-5.2-0.6-7.7,0.4C5.6,13,4.1,15.1,3.8,18C3.7,19.2,3.8,19.2,4.9,18.9z
			 M21.1,35.2c-0.1,0.3-0.2,0.6-0.3,1c0.5,0,0.9,0,1.4-0.1c2.1-0.2,3.8-1.1,5-2.8c1.3-1.8,1.7-3.8,1.8-5.9c0-1.4-0.1-2.7-0.6-4
			l-0.2,0.1c-2.3,2.3-4.5,4.5-6.8,6.8c-0.1,0.1-0.2,0.3-0.2,0.5C21.4,32.2,21.3,33.7,21.1,35.2z M2.1,36.3c-0.3,0.5-0.3,1.1,0.1,1.5
			c0.4,0.4,0.9,0.4,1.5,0.2c0.6-0.2,1.2-0.4,1.9-0.6c1.4-0.4,2.8-0.6,4.2-0.8c1.8-0.3,3.1-1.2,3.9-2.8c0.7-1.3,0.7-0.9-0.3-1.9
			c-0.1-0.1-0.2-0.2-0.2-0.2c-1.7-1.7-3.3-3.3-5-5C8,26.5,7.7,26.2,7.5,26c-0.2-0.2-0.3-0.2-0.6-0.1c-0.7,0.3-1.3,0.7-1.9,1.2
			c-1.2,1-1.6,2.3-1.8,3.7C3.1,32.7,2.7,34.5,2.1,36.3z M17.2,30.7c0.3,0.3,0.5,0.6,0.8,0.9c0.4,0.5,0.4,0.5,0.9,0
			c3.9-3.9,7.8-7.8,11.7-11.7c1.2-1.2,2.5-2.4,3.5-3.7c1.3-1.6,2.3-3.4,3-5.4c0.1-0.2,0.1-0.4-0.2-0.4c-0.7,0-1.3-0.2-1.9-0.3
			c-3.3-1.2-5.1-3.5-5.4-7c0-0.4-0.2-0.3-0.4-0.3c-2.4,0.9-4.6,2.1-6.5,3.9c-4.2,4.1-8.3,8.3-12.5,12.5c-0.6,0.6-1.3,1.3-1.9,1.9
			c-0.3,0.2-0.2,0.4,0,0.6c2.5,2.5,5,5,7.5,7.5C16.2,29.7,16.7,30.2,17.2,30.7z M11.3,28.6L11.3,28.6c1.2,1.2,2.4,2.4,3.6,3.5
			c0.9,0.9,0.9,0.9,1.8,0c0.3-0.3,0.3-0.5,0-0.8c-2.5-2.5-5.1-5.1-7.6-7.6c-0.9-0.9-0.9-0.9-1.8,0c-0.3,0.3-0.3,0.5,0,0.8
			C8.6,25.9,10,27.3,11.3,28.6z"/>
		<path class="st2" d="M17.2,30.7c-0.5-0.5-1-1-1.5-1.5c-2.5-2.5-5-5-7.5-7.5c-0.2-0.2-0.3-0.4,0-0.6c0.7-0.6,1.3-1.3,1.9-1.9
			c4.2-4.2,8.3-8.3,12.5-12.5c1.8-1.8,4-3.1,6.5-3.9c0.3-0.1,0.4-0.1,0.4,0.3c0.3,3.5,2.1,5.8,5.4,7c-0.2,0.5-0.4,0.9-0.6,1.4
			c-0.8,2.1-2,4-3.5,5.5C26.4,21.6,21.8,26.2,17.2,30.7z M30.6,14.7c1.4-1.5,1.4-3.8,0-5.3c-1.4-1.4-3.8-1.4-5.2,0
			c-1.5,1.4-1.5,3.9,0,5.3C26.7,16.1,29.1,16.1,30.6,14.7z M17.4,22c-0.5,0.5-1,1-1.5,1.5c-0.2,0.2-0.4,0.4-0.1,0.7
			c0.2,0.2,0.5,0.1,0.6-0.1c1-1,2-2,3-3c0.2-0.2,0.3-0.4,0.1-0.6c-0.3-0.3-0.5-0.1-0.7,0.1C18.4,21.1,17.9,21.5,17.4,22z M14.4,20.9
			c0.2-0.2,0.5-0.5,0.7-0.7c0.2-0.2,0.2-0.3,0-0.5c-0.2-0.2-0.4-0.2-0.5,0c-0.5,0.5-1,0.9-1.4,1.4c-0.2,0.2-0.2,0.4,0,0.6
			c0.2,0.1,0.4,0.1,0.5,0C13.9,21.4,14.2,21.1,14.4,20.9z M19.6,26.1c0.2-0.2,0.5-0.4,0.7-0.7c0.2-0.2,0.2-0.4,0-0.6
			c-0.2-0.2-0.4-0.1-0.5,0c-0.5,0.5-0.9,0.9-1.4,1.4c-0.2,0.2-0.2,0.4,0,0.6c0.2,0.1,0.4,0.1,0.5,0C19.1,26.6,19.4,26.3,19.6,26.1z"
			/>
		<path class="st2" d="M17.2,30.7c4.5-4.5,9.1-9.1,13.6-13.6c1.6-1.6,2.7-3.5,3.5-5.5c0.2-0.5,0.4-0.9,0.6-1.4
			c0.6,0.1,1.3,0.3,1.9,0.3c0.4,0,0.3,0.1,0.2,0.4c-0.7,2-1.7,3.8-3,5.4c-1.1,1.3-2.3,2.5-3.5,3.7c-3.9,3.9-7.8,7.8-11.7,11.7
			c-0.5,0.5-0.5,0.5-0.9,0C17.8,31.3,17.5,31,17.2,30.7z"/>
		<path class="st11" d="M13.2,31.7c0.1,0.1,0.2,0.2,0.2,0.2c-0.6,1.1-1.5,1.9-2.6,2.4C10,34.7,9.1,34.9,8.2,35
			c-1.7,0.2-3.3,0.5-4.9,1.2c-0.4,0.2-0.8,0.3-1.2,0.1c0.7-1.8,1-3.6,1.2-5.5C3.4,29.3,3.9,28,5.1,27c0.6-0.5,1.2-0.8,1.9-1.2
			c0.2-0.1,0.4-0.1,0.6,0.1c0.2,0.3,0.5,0.5,0.7,0.8c-1,0.8-1.5,1.8-1.6,3c-0.1,1.1-0.3,2.1-0.7,3.1c-0.2,0.4-0.1,0.7,0.2,1
			c0.3,0.3,0.7,0.4,1.1,0.2c0.9-0.4,1.8-0.6,2.7-0.7C11.3,33.3,12.4,32.8,13.2,31.7z"/>
		<path class="st6" d="M21.1,35.2c0.2-1.5,0.4-2.9,0.1-4.4c0-0.2,0-0.3,0.2-0.5c2.3-2.3,4.5-4.5,6.8-6.8l0.2-0.1
			c-0.2,0.2-0.4,0.4-0.6,0.6c-0.3,0.2-0.4,0.5-0.3,0.9c0.1,0.8,0.1,1.6,0,2.3c-0.3,2.5-1,4.7-3,6.4C23.5,34.4,22.4,35,21.1,35.2z"/>
		<path class="st6" d="M15.5,12.7c0,0.1-0.1,0.2-0.2,0.2c-0.1,0.1-0.2,0.2-0.4,0.3c-1.8,1.8-3.7,3.7-5.5,5.5c-1.5-0.2-3-0.2-4.5,0.1
			c-0.1-0.1-0.1-0.2-0.1-0.3c0.6-2.2,1.9-3.9,4-4.9c1.5-0.7,3-1,4.6-1.1C14.2,12.5,14.9,12.4,15.5,12.7z"/>
		<path class="st6" d="M13.2,31.7c-0.8,1.1-2,1.6-3.3,1.7c-0.9,0.1-1.8,0.3-2.7,0.7c-0.4,0.2-0.8,0.1-1.1-0.2
			c-0.3-0.3-0.3-0.7-0.2-1c0.4-1,0.7-2.1,0.7-3.1c0.1-1.2,0.6-2.2,1.6-3C9.9,28.4,11.6,30.1,13.2,31.7z"/>
		<path class="st6" d="M35.1,9.3c-2.7-0.7-4.9-3.7-4.8-6.5c0-0.2,0.1-0.3,0.3-0.4c1.6-0.4,3.2-0.6,4.9-0.5c0.2,0.6,0.2,1.2,0.2,1.7
			C35.8,5.6,35.6,7.5,35.1,9.3z"/>
		<path class="st6" d="M15.5,12.7c-0.7-0.3-1.3-0.2-2-0.2c-1.6,0.1-3.2,0.4-4.6,1.1c-2.1,1-3.4,2.7-4,4.9c0,0.1,0,0.2,0.1,0.3
			c-1.2,0.4-1.2,0.4-1.1-0.8c0.3-3,1.7-5.1,4.5-6.2c2.5-1,5.1-1.1,7.7-0.4c0.6,0.2,0.6,0.2,0.2,0.6C16,12.3,15.8,12.5,15.5,12.7z"/>
		<path class="st6" d="M21.1,35.2c1.3-0.1,2.4-0.8,3.4-1.6c2-1.7,2.7-3.9,3-6.4c0.1-0.8,0.1-1.6,0-2.3c-0.1-0.4,0-0.7,0.3-0.9
			c0.2-0.2,0.4-0.4,0.6-0.6c0.5,1.3,0.7,2.6,0.6,4c-0.1,2.1-0.5,4.2-1.8,5.9c-1.3,1.7-3,2.6-5,2.8c-0.4,0-0.9,0-1.4,0.1
			C20.9,35.8,21,35.5,21.1,35.2z"/>
		<path class="st7" d="M2.1,36.3c0.4,0.2,0.8,0.1,1.2-0.1c1.6-0.7,3.2-0.9,4.9-1.2c0.9-0.1,1.8-0.3,2.6-0.6c1.1-0.5,2-1.3,2.6-2.4
			c0.9,0.9,1,0.6,0.3,1.9c-0.9,1.5-2.2,2.5-3.9,2.8c-1.4,0.2-2.9,0.4-4.2,0.8c-0.6,0.2-1.3,0.4-1.9,0.6c-0.5,0.2-1.1,0.3-1.5-0.2
			C1.8,37.4,1.8,36.8,2.1,36.3z"/>
		<path class="st2" d="M11.3,28.6c-1.4-1.4-2.7-2.7-4.1-4.1c-0.3-0.3-0.3-0.5,0-0.8c0.9-0.9,0.9-0.9,1.8,0c2.5,2.5,5.1,5.1,7.6,7.6
			c0.3,0.3,0.3,0.5,0,0.8c-0.9,0.9-0.9,0.9-1.8,0C13.7,31,12.5,29.8,11.3,28.6L11.3,28.6z"/>
		<path class="st6" d="M35.1,9.3c0.5-1.8,0.7-3.7,0.6-5.6c0-0.6,0-1.2-0.2-1.7c0.7,0,1.4,0.1,2.1,0.2c0.2,0,0.3,0.1,0.3,0.3
			c0.3,2.3,0.2,4.7-0.3,7c-0.1,0.2-0.2,0.3-0.4,0.3C36.5,9.6,35.7,9.6,35.1,9.3z"/>
		<path class="st13" d="M9.4,18.8c1.8-1.8,3.7-3.7,5.5-5.5c0.1-0.1,0.2-0.2,0.4-0.3c-0.5,0.5-1,1-1.5,1.5c-1.3,1.3-2.6,2.6-4,4
			C9.7,18.6,9.6,18.8,9.4,18.8z"/>
		<path class="st5" d="M30.6,14.7c-1.4,1.4-3.8,1.5-5.3,0c-1.4-1.4-1.4-3.8,0-5.3c1.4-1.4,3.8-1.4,5.2,0C32,10.9,32,13.2,30.6,14.7z
			 M25.8,14.1c1.2,1.2,3.1,1.2,4.2,0c1.1-1.1,1.1-3,0-4.2c-1.1-1.2-3-1.2-4.2,0C24.7,11.1,24.7,12.9,25.8,14.1z"/>
		<path class="st5" d="M17.4,22c0.5-0.5,1-1,1.5-1.5c0.2-0.2,0.4-0.4,0.7-0.1c0.2,0.2,0.1,0.5-0.1,0.6c-1,1-2,2-3,3
			c-0.2,0.2-0.4,0.3-0.6,0.1c-0.3-0.3-0.1-0.5,0.1-0.7C16.4,23,16.9,22.5,17.4,22z"/>
		<path class="st5" d="M14.4,20.9c-0.2,0.2-0.5,0.5-0.7,0.7c-0.2,0.2-0.4,0.2-0.5,0c-0.2-0.2-0.2-0.4,0-0.6c0.5-0.5,0.9-1,1.4-1.4
			c0.2-0.1,0.4-0.1,0.5,0c0.2,0.2,0.1,0.3,0,0.5C14.9,20.4,14.6,20.7,14.4,20.9z"/>
		<path class="st5" d="M19.6,26.1c-0.2,0.2-0.5,0.5-0.7,0.7c-0.2,0.2-0.4,0.2-0.5,0c-0.2-0.2-0.2-0.4,0-0.6c0.5-0.5,0.9-0.9,1.4-1.4
			c0.2-0.2,0.3-0.2,0.5,0c0.2,0.2,0.2,0.4,0,0.6C20.1,25.6,19.8,25.8,19.6,26.1z"/>
		<path class="st9" d="M25.8,14.1c-1.2-1.2-1.1-3,0-4.1c1.2-1.2,3-1.1,4.2,0c1.1,1.1,1.1,3,0,4.2C28.9,15.3,27,15.3,25.8,14.1z"/>
	</g>
</g>
<g id="Falcon_1">
	<g>
		<path class="st16" d="M28.6,4c2.4-1.1,4.8-1.8,7.4-2.2c0.5-0.1,1.1-0.1,1.6-0.2c0.4-0.1,0.8,0.1,1.2,0.2C39,2,39.1,2.1,39.3,2.3
			l0,0.1C39,2.2,39,2.4,39,2.5c-0.3,0.7-0.6,1.4-0.9,2c-1,2.1-2.3,4-3.7,5.7c-1.5-1.6-3-3.2-4.5-4.8C29.4,5,28.9,4.5,28.6,4z
			 M37.3,3.6c0.1-0.2,0.2-0.3,0-0.5c-0.2-0.2-0.4-0.2-0.6-0.1C36.1,3,35.5,3.1,35,3.2c-1.1,0.2-2.3,0.5-3.3,0.9
			c-0.2,0.1-0.4,0.2-0.3,0.5c0,0.3,0.3,0.3,0.5,0.3c0.2,0,0.5-0.1,0.7-0.1c1.4-0.5,2.9-0.8,4.4-1C37,3.7,37.1,3.7,37.3,3.6z"/>
		<path class="st6" d="M3.8,13.5L3.8,13.5c0.6,0.6,1.2,1.3,1.8,1.9c0.4,0.4,1,0.4,1.5,0.1c0.5-0.4,0.9-0.8,1.3-1.2
			c0.3,0.3,0.6,0.6,0.9,0.9L9,15.4c-0.2,0.2-0.4,0.4-0.6,0.6c-0.5,0.5-1,1-1.6,1.4c-0.1,0.1-0.2,0.2-0.4,0c-1-1.1-2.1-2.3-3.2-3.4
			C3.4,13.9,3.6,13.7,3.8,13.5z"/>
		<path class="st17" d="M36.5,12.5c-0.6,1.1-1.3,2.2-2,3.3c-1.1,1.6-2.5,2.9-3.9,4.3c-1.1,1-2.2,2-3.2,3c-0.5,0.4-0.9,0.9-1.4,1.3
			c-0.5,0.3-0.9,0.7-1.3,1.1c-0.8,0.7-1.5,1.4-2.3,2.1c-1-1-1.9-2.1-2.9-3.1l0,0c0.1-0.1,0.3-0.2,0.4-0.3c1-1,2-1.9,3-2.8
			c0.8-0.7,1.6-1.4,2.3-2.2l0.1,0c2.3,0.2,4.4-1.8,4.4-4.1l0-0.1c1.6-1.5,3.3-2.9,4.7-4.6c0.4,0.4,0.8,0.8,1.2,1.3
			C35.9,11.9,36.1,12.3,36.5,12.5z"/>
		<path class="st5" d="M10.1,34.6c-0.8,0.8-1.6,1.2-2.5,1.6c-2,0.9-4.1,1.3-6.3,1.7c-0.6,0.1-0.8-0.1-0.6-0.7c0.6-2,1.2-4,2.1-5.9
			c0.4-0.7,0.8-1.4,1.3-2c1.4-1.7,4.1-1.8,5.7-0.4c1.6,1.5,1.6,3.6,0.9,4.9C10.5,34.1,10.3,34.4,10.1,34.6z M6.9,29.2
			c-0.4,0.3-0.6,0.8-0.8,1.2c-0.4,0.9-0.7,1.8-0.9,2.7c-0.1,0.4,0,0.5,0.3,0.5c1.2-0.2,2.5-0.5,3.6-1.1c0.8-0.4,1.3-1,1.2-2
			c0-0.8-0.4-1.4-1.2-1.7C8.3,28.4,7.6,28.6,6.9,29.2z"/>
		<path class="st6" d="M19.5,24.4c1,1,1.9,2.1,2.9,3.1c-0.6,0.6-1.2,1.1-1.8,1.7c-0.3,0.3-0.7,0.6-1,0.9c-0.5,0.5-1,0.5-1.5,0
			c-0.6-0.6-1.1-1.2-1.7-1.8v0l0-0.1c-0.8-0.9-1.6-1.7-2.4-2.6c-0.9-0.9-1.7-1.9-2.6-2.8c-0.6-0.6-1.1-1.2-1.7-1.8
			c-0.5-0.6-0.5-1,0.1-1.5c0.5-0.2,0.9,0,1.3,0.4c0.9,1,1.8,2,2.8,3c0.8,0.8,1.5,1.7,2.4,2.5c0.5,0.5,1.3,0.6,2,0.2
			C18.7,25.3,19.1,24.8,19.5,24.4z"/>
		<path class="st16" d="M19.5,24.4c-0.4,0.4-0.8,0.9-1.3,1.2c-0.6,0.4-1.4,0.3-2-0.2c-0.8-0.8-1.6-1.7-2.4-2.5c-0.9-1-1.8-2-2.8-3
			c-0.4-0.4-0.8-0.6-1.3-0.4c0.3-0.3,0.6-0.6,0.9-0.9l0.3-0.2c0.5-0.4,1-1,1.5-1.4c0.2,0.2,0.4,0.5,0.6,0.7c0.9,0.9,1.7,1.8,2.6,2.7
			C17,21.7,18.3,23.1,19.5,24.4L19.5,24.4z"/>
		<path class="st18" d="M25.8,29.2l0.2-0.1c0.5-0.5,1.1-1,1.6-1.5c0.8-0.8,2-1,3-0.4c0.5,0.3,1,0.8,1.1,1.4l-0.1,0
			c-0.3,0.6-0.9,1-1.4,1.5c-1.2,1.2-2.4,2.3-3.6,3.4c-0.8-0.7-1.5-1.5-2.2-2.3c-0.1-0.1-0.2-0.2-0.3-0.3l0,0c0.5-0.4,0.9-1,1.4-1.3
			C25.6,29.6,25.7,29.4,25.8,29.2z M28.6,28.4c-0.2-0.2-0.4-0.2-0.6-0.1c-0.7,0.5-1.3,1.2-1.9,1.8c-0.2,0.2-0.1,0.5,0.2,0.6
			c0.2,0,0.4,0,0.6-0.2c0.5-0.4,0.9-1,1.4-1.4C28.8,28.9,28.8,28.6,28.6,28.4z"/>
		<path class="st6" d="M36.5,12.5c-0.4-0.2-0.6-0.5-0.9-0.8c-0.4-0.4-0.8-0.9-1.2-1.3l0-0.1c1.5-1.8,2.7-3.6,3.7-5.7
			c0.3-0.7,0.6-1.3,0.9-2c0-0.1,0-0.3,0.2-0.2c0.3,0.4,0.3,0.9,0.3,1.3C38.9,6.7,38,9.7,36.5,12.5z"/>
		<path class="st2" d="M11.4,22.9c0.9,0.9,1.7,1.9,2.6,2.8c0.8,0.9,1.6,1.7,2.4,2.6l0,0.1v0c-0.3,0.5-0.5,1-0.6,1.5
			c-0.2,0.6-0.6,1.1-1,1.6c-0.1,0.2-0.2,0.1-0.3-0.1c-0.6-0.5-1.1-1.1-1.6-1.7c0.7-0.8,0.9-2,0.4-2.9c-0.3-0.5-0.7-0.9-1.1-1.3
			c-0.6-0.7-1.3-1.4-2-2.1C10.6,23.1,11,23,11.4,22.9z"/>
		<path class="st19" d="M10.2,23.3c0.7,0.7,1.3,1.4,2,2.1c0.4,0.4,0.9,0.8,1.1,1.3c0.5,1,0.3,2.1-0.4,2.9c-0.9-0.9-1.8-1.9-2.6-2.8
			c-0.7-0.7-1.3-1.4-2-2.1c-0.2-0.2-0.1-0.3,0-0.4C8.8,23.8,9.5,23.5,10.2,23.3z"/>
		<path class="st2" d="M20.7,29.2c0.6-0.6,1.2-1.1,1.8-1.7c0.7-0.7,1.5-1.4,2.3-2.1c0.4-0.4,0.8-0.8,1.3-1.1c0,0.3-0.1,0.6-0.1,0.9
			l-0.2,0.2c-0.3,0.8-0.7,1.4-1.3,1.9c-0.5,0.4-1,0.9-1.5,1.4c-0.3,0.3-0.4,0.7,0,1.1c0.4,0.4,0.7,0.8,1.1,1.2l0,0l0,0l-0.1,0
			c-0.3,0.2-0.5,0.5-0.8,0.7l0,0C22.3,31,21.5,30.1,20.7,29.2z"/>
		<path class="st16" d="M23.1,31.8L23.1,31.8c0.3-0.2,0.6-0.5,0.8-0.7l0.1,0c0.1,0.1,0.2,0.2,0.3,0.3c0.7,0.8,1.4,1.6,2.2,2.3l0,0
			c-0.4,0.4-0.8,0.7-1.2,1.1c-0.5,0.6-1.3,0.5-1.8-0.1c-0.4-0.5-0.9-0.9-1.3-1.4L21.9,33c0.3-0.3,0.6-0.6,1-0.9L23.1,31.8L23.1,31.8
			z"/>
		<path class="st19" d="M24,31c-0.4-0.4-0.7-0.8-1.1-1.2c-0.3-0.4-0.3-0.7,0-1.1c0.5-0.5,1-1,1.5-1.4c0.6-0.5,1-1.2,1.3-1.9l0.2-0.2
			c0.1,0.9-0.1,1.7-0.1,2.6c0,0.5,0,0.9-0.1,1.4c0,0.2-0.2,0.3-0.3,0.4C24.9,30,24.5,30.6,24,31z"/>
		<path class="st17" d="M26.5,33.6c1.2-1.2,2.4-2.3,3.6-3.4c0.5-0.5,1.1-0.9,1.4-1.5l0.1,0c0.3,0.9,0.1,1.7-0.6,2.4
			c-0.9,0.9-1.8,1.8-2.7,2.6c-0.3,0.3-0.7,0.6-1,0.9C27,34.2,26.7,33.9,26.5,33.6L26.5,33.6z"/>
		<path class="st2" d="M11.1,18.3l-0.3,0.2C10,17.7,9.2,16.9,8.4,16c0.2-0.2,0.4-0.4,0.6-0.6l0.2-0.3c0.3-0.2,0.6-0.5,0.9-0.8
			c0.3-0.3,0.6-0.7,1-0.9c0.5,0,1,0,1.5,0.1l-0.2,0.3c-0.5,0.6-1.1,1-1.6,1.5c-0.5,0.5-0.5,0.9,0,1.5C11.3,17.3,11.3,17.7,11.1,18.3
			z"/>
		<path class="st6" d="M26.4,33.6c0.3,0.3,0.6,0.6,0.9,0.9c-0.1,0.3-0.4,0.4-0.6,0.6c-0.6,0.6-1.2,1.1-1.8,1.7
			c-0.2,0.2-0.3,0.2-0.4,0c-1-1.1-2-2.1-3-3.2c-0.1-0.1-0.1-0.2,0-0.3c0.2-0.1,0.2-0.3,0.5-0.4l0.2,0.3c0.4,0.5,0.9,0.9,1.3,1.4
			c0.5,0.6,1.3,0.6,1.8,0.1C25.6,34.3,26.1,34.1,26.4,33.6z"/>
		<path class="st5" d="M22.6,37.3c-0.6,0.5-1.3,0.8-2,1c-0.3,0.1-0.6,0.2-1,0.2c-0.1,0-0.3,0-0.2-0.2c0.3-0.8,0.5-1.7,1-2.4
			c0.6-1,1.8-1,2.4,0C23.1,36.4,23,36.9,22.6,37.3z"/>
		<path class="st5" d="M4.5,17.8c-0.4,0.4-0.8,0.6-1.2,0.7c-0.5,0.2-1.1,0.3-1.7,0.5c-0.2,0-0.3,0-0.2-0.2c0.2-0.8,0.5-1.7,1-2.4
			c0.3-0.5,0.8-0.7,1.4-0.6c0.6,0.1,1,0.5,1.1,1C5,17.3,4.8,17.6,4.5,17.8z"/>
		<path class="st20" d="M23,31.9L22.9,32L23,31.9z"/>
		<path class="st18" d="M34.4,10.3L34.4,10.3c-1.4,1.8-3.1,3.2-4.6,4.7l0-0.4c-0.1-2.2-1.8-3.9-4-4c-1.5-0.1-2.8,0.5-3.7,1.7
			c-0.5,0.7-0.9,1.5-0.8,2.4c-0.1,1.1,0.3,2.1,1,3c0.8,0.9,1.8,1.4,3,1.5c-0.7,0.8-1.5,1.4-2.3,2.2c-1,0.9-2,1.8-3,2.8
			c-0.1,0.1-0.3,0.2-0.4,0.3c-1.2-1.3-2.5-2.7-3.7-4c-0.9-0.9-1.7-1.8-2.6-2.7c-0.2-0.2-0.4-0.5-0.6-0.7c1.1-1.1,2.4-2.1,3.5-3.3
			c0.8-0.8,1.6-1.5,2.4-2.3c1-0.9,1.9-1.8,2.9-2.7c1.6-1.5,3.4-2.8,5.3-3.8c0.6-0.3,1.2-0.7,1.9-0.9c0.4,0.6,0.9,1,1.3,1.5
			C31.4,7.1,32.9,8.7,34.4,10.3z M16,15.6c-0.1,0.1-0.2,0.2-0.3,0.3c-0.2,0.2-0.4,0.4-0.2,0.7c0.1,0.2,0.5,0.2,0.8-0.1
			c0.3-0.3,0.7-0.6,1-1c0.7-0.7,1.5-1.3,2.2-2c0.3-0.3,0.5-0.5,0.8-0.7c0.1-0.1,0.3-0.2,0.3-0.4c0.1-0.2,0-0.4-0.2-0.6
			c-0.2-0.2-0.4-0.1-0.5,0.1c-0.2,0.2-0.4,0.3-0.6,0.5C18.3,13.5,17.2,14.5,16,15.6z M22.2,9.8c-0.1,0.1-0.2,0.2-0.3,0.3
			c-0.2,0.2-0.3,0.4-0.1,0.6c0.2,0.2,0.5,0.2,0.7,0c0.6-0.5,1.1-1,1.6-1.5c0.2-0.2,0.2-0.4,0-0.6c-0.2-0.2-0.5-0.2-0.6,0
			C23.2,9,22.7,9.3,22.2,9.8z"/>
		<path class="st18" d="M5.9,11.6C7,10.5,8.2,9.5,9.3,8.4c0.5-0.5,1.1-0.8,1.8-0.9c1-0.1,2.2,0.7,2.4,1.7c-0.2,0.3-0.3,0.6-0.6,0.8
			c-0.9,0.8-1.8,1.7-2.7,2.5c-0.6,0.6-1.2,1.2-1.9,1.7C7.5,13.4,6.8,12.5,5.9,11.6z M8.8,10c-0.2,0.2-0.4,0.4-0.6,0.6
			C8,10.7,8,10.9,8.1,11.1c0.2,0.2,0.4,0.2,0.6,0.1c0.3-0.1,0.4-0.4,0.6-0.6c0.4-0.4,0.8-0.7,1.2-1.1c0.2-0.2,0.2-0.6,0-0.7
			C10.3,8.8,10.1,8.7,9.9,9C9.5,9.4,9.1,9.6,8.8,10z"/>
		<path class="st19" d="M16.1,13.7c-1.1,1.1-2.4,2.1-3.5,3.3c-0.6,0.4-1,0.9-1.5,1.4c0.3-0.6,0.2-1-0.3-1.5c-0.5-0.5-0.5-0.9,0-1.5
			c0.5-0.5,1.1-0.9,1.6-1.5l0.2-0.3c0.9,0,1.7,0.1,2.6,0.1C15.5,13.6,15.8,13.7,16.1,13.7z"/>
		<path class="st16" d="M5.9,11.6c0.9,0.8,1.6,1.7,2.5,2.6l0,0c-0.4,0.4-0.8,0.8-1.3,1.2c-0.5,0.4-1.1,0.4-1.5-0.1
			c-0.6-0.6-1.1-1.2-1.7-1.8C4.5,12.9,5.2,12.3,5.9,11.6z"/>
		<path class="st17" d="M8.3,14.3L8.3,14.3c0.7-0.6,1.3-1.2,1.9-1.8c0.9-0.8,1.8-1.7,2.7-2.5c0.3-0.2,0.4-0.5,0.6-0.8
			c0.3,0.7,0.2,1.5-0.2,2.1c-0.6,0.8-1.3,1.4-2,2l-0.2,0.2c-0.4,0.2-0.7,0.6-1,0.9c-0.3,0.3-0.6,0.6-0.9,0.8
			C8.9,14.8,8.6,14.6,8.3,14.3z"/>
		<path class="st21" d="M37.3,3.6c-0.1,0.1-0.3,0.2-0.4,0.2c-1.5,0.2-2.9,0.5-4.4,1c-0.2,0.1-0.5,0.2-0.7,0.1c-0.2,0-0.4,0-0.5-0.3
			c0-0.3,0.1-0.4,0.3-0.5c1.1-0.4,2.2-0.7,3.3-0.9c0.5-0.1,1.1-0.2,1.6-0.3c0.2,0,0.4-0.1,0.6,0.1C37.4,3.2,37.4,3.4,37.3,3.6z"/>
		<path class="st6" d="M25.2,19.1c-1.2-0.1-2.3-0.6-3-1.5c-0.7-0.9-1.1-1.8-1-3c0.5,0.1,0.9-0.2,1-0.6c0.3-1.3,1.2-2.1,2.4-2.5
			c0.6-0.2,1-0.4,1.2-1c2.2,0.1,3.9,1.8,4,4l0,0.4l0,0.1c-0.5-0.1-0.8,0.2-1,0.7c-0.4,1.3-1.3,2.2-2.6,2.5
			C25.5,18.3,25.3,18.5,25.2,19.1L25.2,19.1z M24,17c1.2,0.6,2.4,0.5,3.2-0.3c0.8-0.8,1-2,0.4-3.1c-0.1-0.3-0.4-0.6-0.7-0.8
			c-1.4-1.1-3.5-0.5-4,1.2C22.6,15.1,23.1,16.5,24,17z"/>
		<path class="st22" d="M25.3,19.1c0-0.6,0.2-0.8,0.8-1c1.3-0.3,2.2-1.2,2.6-2.5c0.1-0.5,0.5-0.7,1-0.7
			C29.7,17.3,27.5,19.3,25.3,19.1z"/>
		<path class="st23" d="M6.9,29.2c0.6-0.6,1.4-0.8,2.2-0.4c0.8,0.3,1.1,1,1.2,1.7c0,0.9-0.5,1.5-1.2,2c-1.1,0.6-2.4,0.9-3.6,1.1
			c-0.3,0.1-0.4-0.1-0.3-0.5c0.2-0.9,0.5-1.8,0.9-2.7C6.3,30,6.6,29.6,6.9,29.2z"/>
		<path class="st24" d="M16.5,28.3L16.5,28.3L16.5,28.3z"/>
		<path class="st25" d="M28.6,28.4c0.2,0.2,0.2,0.5-0.1,0.7c-0.5,0.4-1,0.9-1.4,1.4c-0.2,0.2-0.4,0.3-0.6,0.2
			c-0.3,0-0.5-0.4-0.2-0.6c0.6-0.6,1.2-1.3,1.9-1.8C28.3,28.2,28.5,28.2,28.6,28.4z"/>
		<path class="st20" d="M24.3,31.3c-0.1-0.1-0.2-0.2-0.3-0.3l0,0C24.1,31.1,24.2,31.2,24.3,31.3z"/>
		<path class="st20" d="M23.9,31.1c-0.2,0.2-0.5,0.5-0.8,0.7C23.4,31.6,23.6,31.2,23.9,31.1z"/>
		<path class="st25" d="M16,15.6c1.1-1,2.3-2.1,3.4-3.2c0.2-0.2,0.4-0.3,0.6-0.5c0.1-0.1,0.3-0.2,0.5-0.1c0.2,0.2,0.3,0.3,0.2,0.6
			c-0.1,0.2-0.2,0.3-0.3,0.4c-0.3,0.2-0.6,0.5-0.8,0.7c-0.7,0.7-1.5,1.3-2.2,2c-0.3,0.3-0.7,0.6-1,1c-0.3,0.2-0.6,0.3-0.8,0.1
			c-0.2-0.3-0.1-0.5,0.2-0.7C15.9,15.7,16,15.7,16,15.6z"/>
		<path class="st21" d="M25.7,10.6c-0.2,0.6-0.6,0.8-1.2,1c-1.2,0.4-2.1,1.2-2.4,2.5c-0.1,0.4-0.5,0.6-1,0.6c0-0.9,0.3-1.7,0.8-2.4
			C22.9,11.1,24.2,10.5,25.7,10.6z"/>
		<path class="st25" d="M22.2,9.8c0.4-0.4,0.9-0.8,1.3-1.2c0.2-0.2,0.4-0.2,0.6,0c0.2,0.2,0.2,0.4,0,0.6c-0.5,0.5-1.1,1-1.6,1.5
			c-0.2,0.2-0.5,0.2-0.7,0c-0.2-0.3-0.1-0.4,0.1-0.6C22,10,22.1,9.9,22.2,9.8z"/>
		<path class="st25" d="M8.8,10c0.3-0.4,0.7-0.6,1.1-1c0.2-0.2,0.4-0.2,0.6-0.1c0.2,0.1,0.2,0.5,0,0.7c-0.4,0.4-0.8,0.7-1.2,1.1
			c-0.2,0.2-0.4,0.4-0.6,0.6c-0.2,0.1-0.5,0.2-0.6-0.1C8,10.9,8,10.7,8.2,10.5C8.4,10.4,8.6,10.2,8.8,10z"/>
		<path class="st19" d="M27.7,13.6c0.5,1.1,0.4,2.4-0.4,3.1c-0.8,0.8-2.1,0.9-3.2,0.3c-0.5-1-0.3-2.3,0.4-3
			C25.2,13.1,26.5,13,27.7,13.6z"/>
		<path class="st2" d="M27.7,13.6c-1.1-0.6-2.4-0.5-3.2,0.3c-0.8,0.8-0.9,2.1-0.4,3c-0.9-0.5-1.4-1.8-1-2.9c0.5-1.7,2.6-2.3,4-1.2
			C27.3,13,27.5,13.2,27.7,13.6z"/>
	</g>
</g>
</svg>
