<?xml version="1.0" encoding="utf-8"?>
<!-- Generator: Adobe Illustrator 25.2.2, SVG Export Plug-In . SVG Version: 6.00 Build 0)  -->
<svg version="1.1" id="HIT" xmlns="http://www.w3.org/2000/svg" xmlns:xlink="http://www.w3.org/1999/xlink" x="0px" y="0px"
	 viewBox="0 0 40 40" style="enable-background:new 0 0 40 40;" xml:space="preserve">
<style type="text/css">
	.st0{fill:#F5BF49;stroke:#D62828;stroke-width:0.86;stroke-miterlimit:10;}
	.st1{fill:#103149;}
	.st2{fill:none;stroke:#D62828;stroke-width:0.86;stroke-linecap:round;stroke-miterlimit:10;}
</style>
<path class="st0" d="M34.6,4.9c-3.3-3.1-8.3-3.5-12-0.9c-4-3.4-10-2.8-13.4,1.2c-0.5,0.6-0.9,1.3-1.3,2C3.2,9.4,1.2,15,3.4,19.8
	c0,0.1,0.1,0.1,0.1,0.2C0.3,24.1,1,30.1,5.2,33.3c1.7,1.3,3.7,2,5.8,2c0.3,0,0.7,0,1-0.1c3.5,3.9,9.5,4.1,13.4,0.6
	c0.3-0.3,0.6-0.6,0.9-0.9c0.9,0.3,1.8,0.4,2.7,0.4c5.2,0,9.5-4.2,9.5-9.5c0-2.9-1.3-5.7-3.7-7.5C34.8,18.2,38.4,8.5,34.6,4.9z"/>
<path class="st1" d="M15.5,12.6v13h-2.4V20h-2.7v5.5H8.1v-13h2.4v5.7h2.7v-5.7H15.5z"/>
<path class="st1" d="M20,12.6v13h-2.4v-13H20z"/>
<path class="st1" d="M28.2,14.4h-2.3v11.2h-2.4V14.4h-2.3v-1.8h6.9V14.4z"/>
<path class="st1" d="M32.1,12.6l-0.4,8.6h-1.9l-0.4-8.6H32.1z M29.4,22.8h2.5v2.8h-2.5V22.8z"/>
<line class="st2" x1="13.5" y1="5.2" x2="14.5" y2="10.2"/>
<line class="st2" x1="19.1" y1="5.2" x2="18.4" y2="10.2"/>
<line class="st2" x1="28.5" y1="4.2" x2="26.5" y2="9.2"/>
<line class="st2" x1="33.6" y1="6.7" x2="30.1" y2="10.2"/>
<line class="st2" x1="33.6" y1="30.2" x2="30.5" y2="27.2"/>
<line class="st2" x1="28.5" y1="31.9" x2="27.5" y2="27.7"/>
<line class="st2" x1="5.6" y1="30.2" x2="8.1" y2="27.2"/>
<line class="st2" x1="9.5" y1="32.2" x2="11.3" y2="27.7"/>
<line class="st2" x1="6.8" y1="9.2" x2="9.9" y2="10.7"/>
<line class="st2" x1="16.5" y1="34.2" x2="17" y2="28.7"/>
<line class="st2" x1="22.7" y1="34.2" x2="21.4" y2="28.7"/>
</svg>
