<?xml version="1.0" encoding="utf-8"?>
<!-- Generator: Adobe Illustrator 25.2.2, SVG Export Plug-In . SVG Version: 6.00 Build 0)  -->
<svg version="1.1" id="HIT" xmlns="http://www.w3.org/2000/svg" xmlns:xlink="http://www.w3.org/1999/xlink" x="0px" y="0px"
	 viewBox="0 0 36 36" style="enable-background:new 0 0 36 36;" xml:space="preserve">
<style type="text/css">
	.st0{fill:#F5BF49;}
</style>
<path class="st0" d="M18,0C8.1,0,0,8.1,0,18s8.1,18,18,18s18-8.1,18-18S27.9,0,18,0z M13,23.6h-1.9v-8.5L9.5,21H7.7l-1.6-5.9v8.5
	H4.2V11.5h2.4l2,7.2l2-7.2H13V23.6z M17.2,23.6H15V11.5h2.2V23.6z M25.2,21.7c0,1.2-0.6,1.9-2.1,1.9H21c-1.5,0-2.1-0.7-2.1-1.9V20
	h2.2v1.3c0,0.4,0.1,0.5,0.5,0.5h0.7c0.4,0,0.5-0.1,0.5-0.5l0.1-2.5c0-0.4-0.1-0.5-0.5-0.5h-1.6c-1.4,0-2-0.7-2-1.9v-3
	c0-1.2,0.6-1.9,2.1-1.9H23c1.5,0,2.1,0.7,2.1,1.9v1.7h-2.2v-1.4c0-0.4-0.1-0.5-0.5-0.5h-0.7c-0.4,0-0.5,0.1-0.5,0.5v2.4
	c0,0.4,0.1,0.5,0.5,0.5h1.5c1.4,0,2,0.7,2,1.9V21.7z M30.7,23.6h-2.1c-1.5,0-2.1-0.7-2.1-1.9V20h2.2v1.3c0,0.4,0.1,0.5,0.5,0.5h0.7
	c0.4,0,0.5-0.1,0.5-0.5v-2.5c0-0.4-0.1-0.5-0.5-0.5h-1.5c-1.4,0-2-0.7-2-1.9v-3c0-1.2,0.6-1.9,2.1-1.9h2.1c1.5,0,2.1,0.7,2.1,1.9
	v1.7h-2.2v-1.4c0-0.4-0.1-0.5-0.5-0.5h-0.7c-0.4,0-0.5,0.1-0.5,0.5v2.4c0,0.4,0.1,0.5,0.5,0.5h1.5c1.4,0,2,0.7,2,1.9v3.2
	C32.8,22.9,32.2,23.6,30.7,23.6z"/>
</svg>
