<?xml version="1.0" encoding="utf-8"?>
<!-- Generator: Adobe Illustrator 25.2.2, SVG Export Plug-In . SVG Version: 6.00 Build 0)  -->
<svg version="1.1" id="Layer_1" xmlns="http://www.w3.org/2000/svg" xmlns:xlink="http://www.w3.org/1999/xlink" x="0px" y="0px"
	 viewBox="0 0 40 40" style="enable-background:new 0 0 40 40;" xml:space="preserve">
<style type="text/css">
	.st0{fill:#103149;}
	.st1{fill:#EEEEED;}
	.st2{fill:#E0E4E5;}
	.st3{fill:#F5BF49;}
	.st4{fill:#D62828;}
	.st5{fill:#F0BD56;}
	.st6{fill:#9197AB;}
	.st7{fill:#88C3CB;}
</style>
<g>
	<path class="st0" d="M26.2,35.4c-0.3,0-0.5,0.2-0.7,0.3c-1.6,1-3.4,1.1-5.2,1.1c-0.4,0-0.6-0.2-0.4-0.7c0.5-1.4,0.7-2.9,0.6-4.4
		c0-0.2,0-0.4-0.2-0.5c-0.5,0.5-1,0.9-1.4,1.4c-0.3,0.3-0.6,0.4-0.9,0c-0.3-0.4-0.5-0.3-0.8,0c-0.3,0.3-0.7,0.6-1,1
		c-0.3,0.4-0.6,0.4-1,0c-0.3-0.4-0.5-0.3-0.7,0.1c-1,1.9-2.4,3.1-4.6,3.5c-2.2,0.3-4.3,0.6-6.3,1.5c-0.6,0.3-1.2,0-1.8-0.2
		c-0.2-0.2-0.3-0.3-0.5-0.5c-0.4-0.8-0.3-1.6,0.1-2.5c0.6-1.5,0.9-3,1-4.6c0.2-2.7,1.4-4.6,3.9-5.7c0.1,0,0.2-0.1,0.2-0.1l0,0
		c0,0,0-0.1,0-0.1c-1-0.9-0.7-0.9,0-1.7C6.8,23.2,6.9,23.1,7,23c0.2-0.2,0.5-0.4,0.6-0.6c0.1-0.3-0.3-0.4-0.4-0.6
		c-0.2-0.3-0.1-0.5,0.1-0.7c0.5-0.5,0.9-0.9,1.5-1.5c-1-0.2-2-0.1-2.9,0c-0.7,0.1-1.4,0.3-2.1,0.5c-0.4,0.1-0.6,0-0.7-0.4
		c-0.1-2.7,0.5-5.2,2.7-7.1c1.4-1.3,3.1-1.9,5-2.2c2.1-0.4,4.1-0.2,6.1,0.5c0.4,0.1,0.6,0,0.8-0.2c1.6-1.6,3.2-3.4,5-4.9
		c4.4-3.8,9.5-5.3,15.3-4.4c0.4,0.1,0.6,0.2,0.7,0.7c0.8,5.1-0.3,9.6-3.2,13.8c-1.1,1.6-2.6,2.9-3.9,4.2c-0.7,0.7-1.4,1.4-2.1,2.1
		c-0.3,0.3-0.3,0.5-0.2,0.9c1,3,0.9,5.9-0.3,8.8c-0.3,0.7-0.7,1.2-1,1.8C27.2,34.3,26.7,34.8,26.2,35.4z M35.4,2
		c-1.6-0.1-3.2,0.1-4.8,0.5c-0.3,0.1-0.3,0.2-0.3,0.4c-0.1,2.8,2.1,5.7,4.8,6.4c0.7,0.3,1.4,0.3,2.1,0.4c0.2,0,0.3-0.1,0.4-0.3
		c0.6-2.3,0.7-4.6,0.3-6.9c0-0.2-0.1-0.3-0.3-0.3C36.8,2.1,36.1,2,35.4,2z M21.1,35.1c-0.1,0.2-0.1,0.4-0.2,0.7
		c-0.1,0.2,0,0.4,0.2,0.3c2.7,0,4.9-1,6.4-3.3c1-1.6,1.3-3.3,1.4-5.1c0.1-1.3-0.1-2.6-0.5-3.9c-0.1-0.4-0.2-0.4-0.5-0.1
		c-0.2,0.3-0.5,0.5-0.7,0.8l0,0c-2,1.9-3.9,4-5.9,5.9c-0.1,0.1-0.2,0.3-0.1,0.5C21.4,32.2,21.3,33.6,21.1,35.1z M15.6,12.7
		c0.3-0.2,0.5-0.5,0.7-0.7c0.3-0.3,0.3-0.4-0.1-0.5c-2.5-0.7-4.9-0.6-7.3,0.2c-3,1-4.8,3.3-5,6.5c-0.1,1.1-0.1,1.1,1,0.7
		c1.3-0.2,2.7-0.4,4-0.1c0.5,0.1,0.8-0.1,1.1-0.4c1.4-1.5,2.9-2.9,4.4-4.4C14.8,13.6,15.2,13.1,15.6,12.7z M2.2,36.2
		c-0.3,0.5-0.3,1.1,0.1,1.5c0.4,0.4,1,0.4,1.5,0.2c1.1-0.4,2.2-0.8,3.3-1c1-0.2,2-0.3,2.9-0.5c1.7-0.3,2.9-1.3,3.7-2.8
		c0.7-1.2,0.6-0.9-0.3-1.8c-0.1-0.1-0.2-0.2-0.2-0.2c-1.6-1.6-3.3-3.3-4.9-4.9c-0.2-0.3-0.5-0.5-0.7-0.8c-0.2-0.2-0.4-0.2-0.6-0.1
		c-2.1,0.9-3.4,2.4-3.6,4.8C3.2,32.5,2.8,34.4,2.2,36.2z M17.3,30.6c0.3,0.3,0.5,0.6,0.8,0.9c0.4,0.5,0.4,0.5,0.9,0
		c3.9-3.9,7.8-7.8,11.6-11.6c1.2-1.2,2.4-2.3,3.5-3.6c1.3-1.6,2.2-3.4,2.9-5.4c0.1-0.3,0.1-0.4-0.3-0.4c-0.6,0-1.3-0.2-1.9-0.3
		c-3.3-1.2-5.1-3.5-5.4-7.1c0-0.4-0.2-0.2-0.4-0.2c-2.3,0.8-4.5,2-6.3,3.7c-3.3,3.3-6.6,6.6-9.9,9.9c-1.5,1.5-3.1,3.1-4.6,4.6
		c-0.2,0.2-0.3,0.4,0,0.7c1.4,1.3,2.7,2.7,4.1,4C14,27.4,15.6,29,17.3,30.6z M12.7,27.3c-1.2-1.2-2.4-2.4-3.6-3.6
		c-0.9-0.9-0.8-0.8-1.7,0C7,24,7,24.2,7.4,24.6c2.5,2.5,5,5,7.5,7.4c1,1,0.9,1,1.9,0c0.3-0.3,0.2-0.4,0-0.7
		C15.4,30,14.1,28.7,12.7,27.3z"/>
	<path class="st1" d="M17.3,30.6c-1.6-1.6-3.3-3.2-4.9-4.9c-1.4-1.3-2.7-2.7-4.1-4c-0.3-0.3-0.2-0.4,0-0.7c1.6-1.5,3.1-3.1,4.6-4.6
		c3.3-3.3,6.6-6.6,9.9-9.9c1.8-1.7,3.9-2.9,6.3-3.7c0.2-0.1,0.4-0.2,0.4,0.2c0.2,3.5,2.1,5.9,5.4,7.1c-0.2,0.4-0.3,0.7-0.5,1.1
		c-0.8,2.2-2,4.2-3.7,5.9C26.3,21.7,21.7,26.1,17.3,30.6z M30.5,14.7c1.5-1.4,1.5-3.8,0-5.2c-1.4-1.4-3.8-1.4-5.2,0
		c-1.4,1.4-1.4,3.8,0,5.2C26.7,16.1,29,16.1,30.5,14.7z M17.4,22c-0.5,0.5-1,1-1.5,1.5c-0.2,0.2-0.4,0.4-0.1,0.6
		c0.2,0.2,0.4,0.1,0.6-0.1c1-1,2-2,3.1-3.1c0.2-0.2,0.3-0.4,0.1-0.6c-0.2-0.2-0.4-0.1-0.6,0.1C18.4,21,17.9,21.5,17.4,22z
		 M14.4,20.9c0.2-0.2,0.5-0.4,0.7-0.7c0.2-0.2,0.2-0.3,0-0.5c-0.2-0.2-0.4-0.2-0.6,0c-0.5,0.5-0.9,0.9-1.4,1.4
		c-0.2,0.2-0.2,0.4,0,0.6c0.2,0.1,0.4,0.1,0.5,0C14,21.3,14.2,21.1,14.4,20.9z M19.1,25.5c-0.2,0.2-0.4,0.5-0.7,0.7
		c-0.2,0.2-0.2,0.4,0,0.6c0.1,0.2,0.4,0.2,0.5,0c0.5-0.5,1-0.9,1.4-1.4c0.2-0.2,0.1-0.4,0-0.5c-0.2-0.2-0.4-0.1-0.6,0
		C19.5,25.1,19.3,25.3,19.1,25.5z"/>
	<path class="st2" d="M17.3,30.6c4.5-4.5,9-9,13.5-13.5c1.6-1.7,2.8-3.7,3.7-5.9c0.1-0.4,0.3-0.7,0.5-1.1c0.6,0.1,1.2,0.3,1.9,0.3
		c0.3,0,0.4,0.1,0.3,0.4c-0.7,1.9-1.7,3.7-2.9,5.4c-1,1.3-2.3,2.5-3.5,3.6c-3.9,3.9-7.8,7.8-11.6,11.6c-0.5,0.5-0.5,0.5-0.9,0
		C17.8,31.2,17.5,30.9,17.3,30.6z"/>
	<path class="st3" d="M13.3,31.6c0.1,0.1,0.2,0.2,0.2,0.2c-0.6,1-1.4,1.9-2.6,2.4c-0.8,0.4-1.7,0.5-2.6,0.6
		c-1.7,0.2-3.3,0.5-4.9,1.2c-0.4,0.2-0.8,0.3-1.2,0.1c0.7-1.8,1.1-3.6,1.2-5.5c0.2-2.4,1.5-3.9,3.6-4.8c0.2-0.1,0.4-0.1,0.6,0.1
		c0.2,0.3,0.5,0.5,0.7,0.8c-1.1,0.8-1.5,1.9-1.6,3.1c-0.1,1-0.3,2-0.7,2.9c-0.2,0.4-0.2,0.8,0.2,1.1c0.3,0.3,0.7,0.3,1.1,0.1
		c0.9-0.3,1.8-0.6,2.8-0.7C11.4,33.2,12.5,32.7,13.3,31.6z"/>
	<path class="st4" d="M15.6,12.7c-0.4,0.4-0.8,0.8-1.2,1.3c-1.5,1.5-2.9,2.9-4.4,4.4c-0.3,0.3-0.6,0.5-1.1,0.4
		c-1.4-0.2-2.7-0.1-4,0.1c0.5-2.7,2.1-4.5,4.6-5.5c1.3-0.5,2.6-0.8,4-0.9C14.2,12.5,14.9,12.5,15.6,12.7z"/>
	<path class="st4" d="M21.1,35.1c0.3-1.4,0.3-2.8,0.1-4.3c0-0.2,0-0.3,0.1-0.5c2-1.9,3.9-4,5.9-5.9l0,0c0.1,0.1,0.1,0.2,0.1,0.3
		c0.1,1,0.1,2.1-0.1,3.1c-0.4,2.4-1.2,4.6-3.3,6C23.1,34.4,22.2,35,21.1,35.1z"/>
	<path class="st4" d="M13.3,31.6c-0.8,1.1-1.9,1.5-3.2,1.7c-1,0.1-1.9,0.3-2.8,0.7c-0.4,0.2-0.8,0.2-1.1-0.1
		c-0.3-0.3-0.3-0.7-0.2-1.1c0.4-0.9,0.6-1.9,0.7-2.9c0.1-1.3,0.6-2.4,1.6-3.1C10,28.3,11.6,30,13.3,31.6z"/>
	<path class="st4" d="M35,9.3c-2.7-0.7-4.8-3.6-4.8-6.4c0-0.2,0-0.4,0.3-0.4c1.6-0.4,3.2-0.6,4.8-0.5C35.8,4.5,35.7,6.9,35,9.3z"/>
	<path class="st4" d="M21.1,35.1c1.1-0.1,2-0.6,2.9-1.2c2.1-1.5,2.9-3.6,3.3-6c0.2-1,0.2-2.1,0.1-3.1c0-0.1,0-0.2-0.1-0.3
		c0.2-0.3,0.5-0.5,0.7-0.8c0.2-0.3,0.4-0.3,0.5,0.1c0.4,1.3,0.5,2.6,0.5,3.9c-0.1,1.8-0.4,3.5-1.4,5.1c-1.5,2.3-3.7,3.3-6.4,3.3
		c-0.3,0-0.3-0.1-0.2-0.3C20.9,35.5,21,35.3,21.1,35.1z"/>
	<path class="st4" d="M15.6,12.7c-0.7-0.3-1.4-0.2-2.1-0.2c-1.4,0.1-2.7,0.3-4,0.9c-2.5,1-4.1,2.8-4.6,5.5c-1.1,0.3-1.1,0.3-1-0.7
		c0.2-3.1,2-5.5,5-6.5c2.4-0.8,4.9-0.9,7.3-0.2c0.5,0.1,0.5,0.3,0.1,0.5C16,12.3,15.9,12.5,15.6,12.7z"/>
	<path class="st5" d="M2.2,36.2c0.4,0.2,0.8,0.1,1.2-0.1c1.6-0.7,3.2-0.9,4.9-1.2c0.9-0.1,1.8-0.3,2.6-0.6c1.1-0.5,1.9-1.4,2.6-2.4
		c0.9,0.9,1,0.6,0.3,1.8c-0.8,1.5-2,2.5-3.7,2.8c-1,0.2-2,0.3-2.9,0.5c-1.1,0.2-2.2,0.5-3.3,1c-0.6,0.2-1.1,0.3-1.5-0.2
		C1.9,37.3,1.9,36.7,2.2,36.2z"/>
	<path class="st6" d="M12.7,27.3c1.4,1.4,2.7,2.7,4.1,4c0.3,0.3,0.3,0.4,0,0.7c-1,1-0.9,1-1.9,0c-2.5-2.5-5-5-7.5-7.4
		C7,24.2,7,24,7.4,23.7c0.9-0.8,0.9-0.8,1.7,0C10.3,24.9,11.5,26.1,12.7,27.3z"/>
	<path class="st4" d="M35,9.3c0.7-2.4,0.8-4.9,0.4-7.3c0.7,0,1.4,0.1,2.1,0.2c0.2,0,0.3,0.1,0.3,0.3c0.4,2.3,0.2,4.7-0.3,6.9
		c-0.1,0.2-0.2,0.3-0.4,0.3C36.3,9.7,35.6,9.6,35,9.3z"/>
	<path class="st0" d="M30.5,14.7c-1.4,1.4-3.8,1.4-5.2,0c-1.4-1.4-1.4-3.8,0-5.2c1.4-1.4,3.8-1.4,5.2,0
		C31.9,10.9,31.9,13.3,30.5,14.7z M25.8,14.1c1.1,1.2,3,1.2,4.1,0.1c1.1-1.1,1.1-3,0-4.2c-1.1-1.1-3.1-1.1-4.2,0
		C24.7,11.1,24.7,13,25.8,14.1z"/>
	<path class="st0" d="M17.4,22c0.5-0.5,1-1,1.5-1.5c0.2-0.2,0.4-0.3,0.6-0.1c0.2,0.2,0.1,0.4-0.1,0.6c-1,1-2,2-3.1,3.1
		c-0.2,0.2-0.4,0.3-0.6,0.1c-0.2-0.2-0.1-0.4,0.1-0.6C16.4,23,16.9,22.5,17.4,22z"/>
	<path class="st0" d="M14.4,20.9c-0.2,0.2-0.5,0.5-0.7,0.7c-0.2,0.2-0.4,0.2-0.5,0c-0.2-0.2-0.2-0.4,0-0.6c0.5-0.5,0.9-0.9,1.4-1.4
		c0.2-0.2,0.4-0.2,0.6,0c0.2,0.2,0.1,0.4,0,0.5C14.9,20.4,14.7,20.6,14.4,20.9z"/>
	<path class="st0" d="M19.1,25.5c0.2-0.2,0.4-0.4,0.7-0.7c0.2-0.2,0.4-0.2,0.6,0c0.2,0.2,0.2,0.4,0,0.5c-0.5,0.5-0.9,1-1.4,1.4
		c-0.2,0.2-0.4,0.2-0.5,0c-0.2-0.2-0.2-0.4,0-0.6C18.6,26,18.8,25.7,19.1,25.5z"/>
	<path class="st7" d="M25.8,14.1c-1.1-1.1-1.1-3,0-4.1c1.1-1.1,3.1-1.1,4.2,0c1.1,1.2,1.1,3.1,0,4.2C28.8,15.3,26.9,15.3,25.8,14.1z
		"/>
</g>
</svg>
